<svg xmlns="http://www.w3.org/2000/svg" viewBox="0 0 576 512"><!--!Font Awesome Free 6.7.2 by @fontawesome - https://fontawesome.com License - https://fontawesome.com/license/free Copyright 2025 Fonticons, Inc.--><path d="M125.6 165.5a49.1 49.1 0 1 0 49.1 49.1A49.1 49.1 0 0 0 125.6 165.5zM86.2 425.8h78.9V285.3H86.2zm151.5-211.6c0-20-10-22.5-18.7-22.5H204.8V237.5h14.1C228.6 237.5 237.6 234.7 237.6 214.2zm201.7 46V168.9h22.8V237.5h33.7C486.5 113.1 388.6 86.2 299.7 86.2H204.8V169h14c25.6 0 41.5 17.4 41.5 45.3 0 28.8-15.5 46-41.5 46h-14V425.9h94.8c144.6 0 194.9-67.2 196.7-165.6zm-109.8 0H273.3V169h54.4v22.7H296v10.6h30V225H296V237.5h33.5zm74.7 0-5.2-17.7H369.3l-5.2 17.7H340.5L368 168.9h32.4l27.5 91.3zM299.7 32H32V480H299.7c161.9 0 251-79.7 251-224.5C550.6 172 518 32 299.7 32zm0 426.9H53.1V53.1H299.7c142.1 0 229.9 64.6 229.9 202.4C529.6 389.6 448.6 458.9 299.7 458.9zm83.9-264.9L376 219.9H392.4l-7.5-25.8z"/></svg>